<svg viewBox="-1226 -696 3824 2906" version="1.1" xmlns="http://www.w3.org/2000/svg" xmlns:xlink="http://www.w3.org/1999/xlink" xmlns:penpot="https://penpot.app/xmlns" style="width:100%;height:100%;background:#E8E9EA" fill="none"><penpot:page id="502c5b43-61ea-81d3-8004-934a64c73901"></penpot:page><g id="shape-ee2af4d2-3755-8063-8004-934e80d01141"><penpot:shape penpot:name="Board" penpot:blocked="false" penpot:hidden="false" penpot:type="frame" penpot:hide-fill-on-export="false" penpot:transform="matrix(1.000000, 0.000000, 0.000000, 1.000000, 0.000000, 0.000000)" penpot:transform-inverse="matrix(1.000000, 0.000000, 0.000000, 1.000000, 0.000000, 0.000000)" penpot:proportion="1" penpot:proportion-lock="false" penpot:rotation="0" penpot:center-x="686" penpot:center-y="757" penpot:hide-in-viewer="false"><penpot:fills><penpot:fill penpot:fill-color="#FFFFFF" penpot:fill-opacity="0"></penpot:fill></penpot:fills></penpot:shape><defs><clipPath id="frame-clip-ee2af4d2-3755-8063-8004-934e80d01141-render-6" class="frame-clip frame-clip-def"><rect rx="0" ry="0" x="-1226" y="-696" width="3824" height="2906" transform="matrix(1.000000, 0.000000, 0.000000, 1.000000, 0.000000, 0.000000)"></rect></clipPath></defs><g clip-path="url(#frame-clip-ee2af4d2-3755-8063-8004-934e80d01141-render-6)" fill="none"><g class="fills" id="fills-ee2af4d2-3755-8063-8004-934e80d01141"><rect rx="0" ry="0" x="-1226" y="-696" width="3824" height="2906" transform="matrix(1.000000, 0.000000, 0.000000, 1.000000, 0.000000, 0.000000)" class="frame-background" style="fill:#FFFFFF;fill-opacity:0"></rect></g><g class="frame-children"><g id="shape-ee2af4d2-3755-8063-8004-934a66282185"><penpot:shape penpot:name="Ellipse" penpot:blocked="false" penpot:type="path" penpot:transform="matrix(1.000000, 0.000000, 0.000000, 1.000000, 0.000000, 0.000000)" penpot:transform-inverse="matrix(1.000000, 0.000000, 0.000000, 1.000000, 0.000000, 0.000000)" penpot:proportion="1" penpot:proportion-lock="true" penpot:rotation="0" penpot:center-x="611.4999999999999" penpot:center-y="645.5"><penpot:fills><penpot:fill penpot:fill-color="#050e29" penpot:fill-opacity="1"></penpot:fill></penpot:fills></penpot:shape><defs></defs><g class="fills" id="fills-ee2af4d2-3755-8063-8004-934a66282185"><path d="M611.500,-33.000C985.974,-33.000,1290.000,271.026,1290.000,645.500C1290.000,1019.974,985.974,1324.000,611.500,1324.000C237.026,1324.000,-67.000,1019.974,-67.000,645.500C-67.000,271.026,237.026,-33.000,611.500,-33.000Z" style="fill:#050e29;fill-opacity:1"></path></g></g><g id="shape-ee2af4d2-3755-8063-8004-934ab4bf2ed0"><penpot:shape penpot:name="Ellipse" penpot:blocked="false" penpot:type="path" penpot:transform="matrix(1.000000, 0.000000, 0.000000, 1.000000, 0.000000, 0.000000)" penpot:transform-inverse="matrix(1.000000, 0.000000, 0.000000, 1.000000, 0.000000, 0.000000)" penpot:proportion="1" penpot:proportion-lock="true" penpot:rotation="0" penpot:center-x="611" penpot:center-y="646"><penpot:fills><penpot:fill penpot:fill-color="#d5def9" penpot:fill-opacity="1"></penpot:fill></penpot:fills></penpot:shape><defs></defs><g class="fills" id="fills-ee2af4d2-3755-8063-8004-934ab4bf2ed0"><path d="M611.000,19.000C957.051,19.000,1238.000,299.949,1238.000,646.000C1238.000,992.051,957.051,1273.000,611.000,1273.000C264.949,1273.000,-16.000,992.051,-16.000,646.000C-16.000,299.949,264.949,19.000,611.000,19.000Z" style="fill:#d5def9;fill-opacity:1"></path></g></g><g id="shape-ee2af4d2-3755-8063-8004-934cf1cde0e9"><penpot:shape penpot:name="Difference" penpot:blocked="false" penpot:type="path" penpot:transform="matrix(1.000000, 0.000000, 0.000000, 1.000000, 0.000000, 0.000000)" penpot:transform-inverse="matrix(1.000000, 0.000000, 0.000000, 1.000000, 0.000000, 0.000000)" penpot:proportion="0.964" penpot:proportion-lock="true" penpot:rotation="0" penpot:center-x="612.5" penpot:center-y="686"><penpot:fills><penpot:fill penpot:fill-color="#050e29" penpot:fill-opacity="1"></penpot:fill></penpot:fills><penpot:strokes><penpot:stroke penpot:stroke-alignment="inner" penpot:stroke-color="#000000" penpot:stroke-opacity="0.005" penpot:stroke-width="1" penpot:stroke-style="solid"></penpot:stroke></penpot:strokes></penpot:shape><defs></defs><g class="fills" id="fills-ee2af4d2-3755-8063-8004-934cf1cde0e9"><path d="M252.980,759.076L251.000,760.737L251.000,600.276L251.000,414.299L251.000,379.661C251.000,375.319,252.551,371.278,255.214,367.908C255.313,367.370,255.413,366.833,255.515,366.296C267.205,366.680,279.060,366.872,291.025,366.872C417.700,366.872,531.987,345.388,612.539,311.000C693.013,345.388,807.300,366.872,933.975,366.872C945.916,366.872,957.747,366.681,969.450,366.306C969.589,366.834,969.691,367.383,969.792,367.932C972.449,371.278,974.000,375.319,974.000,379.661L974.000,414.299L974.000,600.276L974.000,759.990L972.910,759.076L612.945,1061.000L252.980,759.076Z" style="fill:#050e29;fill-opacity:1"></path></g><g id="strokes-ee2af4d2-3755-8063-8004-934cf1cde0e9" class="strokes"><g class="inner-stroke-shape"><defs><clipPath id="inner-stroke-render-9-ee2af4d2-3755-8063-8004-934cf1cde0e9-0"><use href="#stroke-shape-render-9-ee2af4d2-3755-8063-8004-934cf1cde0e9-0"></use></clipPath><path d="M252.980,759.076L251.000,760.737L251.000,600.276L251.000,414.299L251.000,379.661C251.000,375.319,252.551,371.278,255.214,367.908C255.313,367.370,255.413,366.833,255.515,366.296C267.205,366.680,279.060,366.872,291.025,366.872C417.700,366.872,531.987,345.388,612.539,311.000C693.013,345.388,807.300,366.872,933.975,366.872C945.916,366.872,957.747,366.681,969.450,366.306C969.589,366.834,969.691,367.383,969.792,367.932C972.449,371.278,974.000,375.319,974.000,379.661L974.000,414.299L974.000,600.276L974.000,759.990L972.910,759.076L612.945,1061.000L252.980,759.076Z" style="fill:none;fill-opacity:none;stroke-width:2;stroke:#000000;stroke-opacity:0.005" id="stroke-shape-render-9-ee2af4d2-3755-8063-8004-934cf1cde0e9-0"></path></defs><use href="#stroke-shape-render-9-ee2af4d2-3755-8063-8004-934cf1cde0e9-0" clip-path="url(&#x27;#inner-stroke-render-9-ee2af4d2-3755-8063-8004-934cf1cde0e9-0&#x27;)"></use></g></g></g><g id="shape-ee2af4d2-3755-8063-8004-934d2d2961bb"><penpot:shape penpot:name="Difference" penpot:blocked="false" penpot:type="path" penpot:transform="matrix(1.000000, 0.000000, 0.000000, 1.000000, 0.000000, 0.000000)" penpot:transform-inverse="matrix(1.000000, 0.000000, 0.000000, 1.000000, 0.000000, 0.000000)" penpot:proportion="0.964" penpot:proportion-lock="true" penpot:rotation="0" penpot:center-x="616" penpot:center-y="680"><penpot:fills><penpot:fill penpot:fill-color="#e5e9f2" penpot:fill-opacity="1"></penpot:fill></penpot:fills><penpot:strokes><penpot:stroke penpot:stroke-alignment="inner" penpot:stroke-color="#000000" penpot:stroke-opacity="0.005" penpot:stroke-width="1" penpot:stroke-style="solid"></penpot:stroke></penpot:strokes></penpot:shape><defs></defs><g class="fills" id="fills-ee2af4d2-3755-8063-8004-934d2d2961bb"><path d="M321.621,739.825L320.000,741.184L320.000,609.820L320.000,457.567L320.000,429.211C320.000,425.656,321.270,422.348,323.451,419.589C323.531,419.148,323.613,418.709,323.697,418.269C333.269,418.583,342.976,418.740,352.773,418.740C456.496,418.740,550.075,401.152,616.032,373.000C681.925,401.152,775.504,418.740,879.227,418.740C889.004,418.740,898.692,418.584,908.274,418.277C908.388,418.709,908.472,419.159,908.554,419.608C910.730,422.348,912.000,425.656,912.000,429.211L912.000,457.567L912.000,609.820L912.000,740.573L911.107,739.825L616.364,987.000L321.621,739.825Z" style="fill:#e5e9f2;fill-opacity:1"></path></g><g id="strokes-ee2af4d2-3755-8063-8004-934d2d2961bb" class="strokes"><g class="inner-stroke-shape"><defs><clipPath id="inner-stroke-render-10-ee2af4d2-3755-8063-8004-934d2d2961bb-0"><use href="#stroke-shape-render-10-ee2af4d2-3755-8063-8004-934d2d2961bb-0"></use></clipPath><path d="M321.621,739.825L320.000,741.184L320.000,609.820L320.000,457.567L320.000,429.211C320.000,425.656,321.270,422.348,323.451,419.589C323.531,419.148,323.613,418.709,323.697,418.269C333.269,418.583,342.976,418.740,352.773,418.740C456.496,418.740,550.075,401.152,616.032,373.000C681.925,401.152,775.504,418.740,879.227,418.740C889.004,418.740,898.692,418.584,908.274,418.277C908.388,418.709,908.472,419.159,908.554,419.608C910.730,422.348,912.000,425.656,912.000,429.211L912.000,457.567L912.000,609.820L912.000,740.573L911.107,739.825L616.364,987.000L321.621,739.825Z" style="fill:none;fill-opacity:none;stroke-width:2;stroke:#000000;stroke-opacity:0.005" id="stroke-shape-render-10-ee2af4d2-3755-8063-8004-934d2d2961bb-0"></path></defs><use href="#stroke-shape-render-10-ee2af4d2-3755-8063-8004-934d2d2961bb-0" clip-path="url(&#x27;#inner-stroke-render-10-ee2af4d2-3755-8063-8004-934d2d2961bb-0&#x27;)"></use></g></g></g></g></g></g></svg>